<?xml version="1.0" encoding="UTF-8"?>
<svg xmlns="http://www.w3.org/2000/svg" viewBox="0 0 32 32" width="32" height="32">
  <defs>
    <linearGradient id="leftGradient" x1="0%" y1="0%" x2="100%" y2="100%">
      <stop offset="0%" stop-color="#c026d3"/>
      <stop offset="100%" stop-color="#9333ea"/>
    </linearGradient>

    <linearGradient id="centerGradient" x1="0%" y1="0%" x2="100%" y2="100%">
      <stop offset="0%" stop-color="#7c3aed"/>
      <stop offset="100%" stop-color="#5b21b6"/>
    </linearGradient>

    <linearGradient id="rightGradient" x1="0%" y1="0%" x2="100%" y2="100%">
      <stop offset="0%" stop-color="#a855f7"/>
      <stop offset="100%" stop-color="#7c3aed"/>
    </linearGradient>
  </defs>

  <!-- Three People Icon - Scaled for 32x32 -->
  <g transform="translate(0, 1)">
    <!-- Left person -->
    <g fill="url(#leftGradient)">
      <circle cx="7" cy="7" r="3.5"/>
      <path d="M1.5 26 C1.5 19 4 15 7 15 C10 15 12.5 19 12.5 26 Q12.5 28 10.5 28 L3.5 28 Q1.5 28 1.5 26 Z"/>
    </g>

    <!-- Right person -->
    <g fill="url(#rightGradient)">
      <circle cx="25" cy="7" r="3.5"/>
      <path d="M19.5 26 C19.5 19 22 15 25 15 C28 15 30.5 19 30.5 26 Q30.5 28 28.5 28 L21.5 28 Q19.5 28 19.5 26 Z"/>
    </g>

    <!-- Center person (elevated) -->
    <g fill="url(#centerGradient)">
      <circle cx="16" cy="4.5" r="4.5"/>
      <path d="M9 24 C9 16 12 12 16 12 C20 12 23 16 23 24 Q23 27 21 27 L11 27 Q9 27 9 24 Z"/>
    </g>
  </g>
</svg>
