<?xml version="1.0" encoding="UTF-8"?>
<svg xmlns="http://www.w3.org/2000/svg" viewBox="0 0 200 40" width="200" height="40">
  <defs>
    <style>
      .center-person {
        animation: lift-float 4s cubic-bezier(0.4, 0, 0.2, 1) infinite;
        transform-origin: 24px 20px;
      }
      @keyframes lift-float {
        0%, 100% { transform: translateY(0); }
        50% { transform: translateY(-1px); }
      }
    </style>
  </defs>

  <!-- Three People Icon - All White -->
  <g transform="translate(2, 1)">
    <!-- Left person -->
    <g fill="#FFFFFF" opacity="0.85">
      <circle cx="10" cy="9" r="5"/>
      <path d="M2 35 C2 26 5.5 20 10 20 C14.5 20 18 26 18 35 Q18 37 15.5 37 L4.5 37 Q2 37 2 35 Z"/>
    </g>

    <!-- Right person -->
    <g fill="#FFFFFF" opacity="0.85">
      <circle cx="38" cy="9" r="5"/>
      <path d="M30 35 C30 26 33.5 20 38 20 C42.5 20 46 26 46 35 Q46 37 43.5 37 L32.5 37 Q30 37 30 35 Z"/>
    </g>

    <!-- Center person (elevated) -->
    <g class="center-person" fill="#FFFFFF">
      <circle cx="24" cy="6" r="6.5"/>
      <path d="M13 33 C13 23 17.5 16 24 16 C30.5 16 35 23 35 33 Q35 36 32 36 L16 36 Q13 36 13 33 Z"/>
    </g>
  </g>

  <!-- LIFTOUT Text - White -->
  <text
    x="56"
    y="27"
    font-family="Inter, -apple-system, BlinkMacSystemFont, 'Segoe UI', sans-serif"
    font-size="26"
    font-weight="800"
    letter-spacing="-0.03em"
    fill="#FFFFFF"
  >LIFTOUT</text>
</svg>
