<?xml version="1.0" encoding="UTF-8"?>
<svg id="Layer_1" data-name="Layer 1" xmlns="http://www.w3.org/2000/svg" viewBox="0 0 936.29 177">
  <defs>
    <style>
      .cls-1 {
        fill: #9c2aff;
      }

      .cls-2 {
        fill: #8f00d4;
      }

      .cls-3 {
        font-family: Alfarn, Alfarn;
      }

      .cls-3, .cls-4 {
        fill: #5d007f;
      }

      .cls-3, .cls-5 {
        font-size: 150px;
      }

      .cls-5 {
        fill: #8e0094;
        font-family: Alfarn2, 'Alfarn 2';
      }
    </style>
  </defs>
  <path class="cls-4" d="M147.62,125.66c0-8.54-2.44-17.08-7.32-23.18-8.54-9.76-18.3-14.64-30.5-14.64h-21.96c-8.54,0-15.86,2.44-23.18,7.32-8.54,6.1-13.42,14.64-14.64,24.4-1.22,10.98,0,23.18-1.22,35.38,1.22,0,3.66,1.22,4.88,1.22,14.64,3.66,28.06,7.32,42.7,7.32,8.54,0,18.3,0,26.84-1.22,7.32-1.22,14.64-3.66,21.96-6.1,1.22,0,1.22-1.22,1.22-2.44,1.22-9.76,1.22-19.52,1.22-28.06Z"/>
  <path class="cls-2" d="M68.32,85.4c2.44-1.22,3.66-1.22,6.1-2.44-7.32-7.32-10.98-14.64-10.98-24.4h-25.62c-4.88,0-9.76,1.22-13.42,2.44C10.98,65.88,0,79.3,0,93.94v30.5q0,1.22,1.22,2.44c9.76,2.44,19.52,4.88,29.28,6.1,3.66,0,8.54,1.22,12.2,1.22v-7.32c0-3.66,0-7.32,1.22-10.98,3.66-14.64,12.2-24.4,24.4-30.5Z"/>
  <path class="cls-1" d="M195.2,96.38c0-4.88-1.22-10.98-3.66-15.86-7.32-14.64-18.3-21.96-34.16-21.96h-23.18c0,9.76-3.66,18.3-10.98,24.4,1.22,0,2.44,1.22,2.44,1.22,6.1,2.44,12.2,6.1,17.08,10.98,7.32,8.54,10.98,18.3,10.98,29.28v8.54c6.1-1.22,10.98-1.22,17.08-2.44,7.32-1.22,15.86-3.66,23.18-7.32,1.22,0,1.22-1.22,1.22-2.44,0-6.1,0-15.86,0-24.4Z"/>
  <path class="cls-4" d="M98.82,86.62c15.86,0,29.28-13.42,28.06-29.28,0-15.86-13.42-28.06-28.06-28.06-15.86,0-29.28,12.2-29.28,28.06,1.22,15.86,13.42,29.28,29.28,29.28Z"/>
  <path class="cls-1" d="M134.2,54.9c3.66,1.22,7.32,2.44,12.2,2.44,15.86,0,29.28-13.42,28.06-29.28,0-15.86-13.42-28.06-28.06-28.06-15.86,0-29.28,12.2-29.28,28.06,9.76,4.88,15.86,14.64,17.08,26.84Z"/>
  <path class="cls-2" d="M48.8,57.34c4.88,0,10.98-1.22,14.64-3.66,1.22-9.76,6.1-18.3,13.42-23.18v-1.22c0-15.86-13.42-28.06-28.06-28.06-15.86,0-29.28,12.2-29.28,28.06,0,14.64,13.42,28.06,29.28,28.06Z"/>
  <text class="cls-3" transform="translate(231.32 145.32)"><tspan x="0" y="0">LIFT</tspan></text>
  <text class="cls-5" transform="translate(602.69 143.25)"><tspan x="0" y="0">OUT</tspan></text>
</svg>