<?xml version="1.0" encoding="UTF-8"?>
<svg xmlns="http://www.w3.org/2000/svg" viewBox="0 0 360 48" width="360" height="48">
  <defs>
    <linearGradient id="leftGradient" x1="0%" y1="0%" x2="100%" y2="100%">
      <stop offset="0%" stop-color="#d946ef"/>
      <stop offset="100%" stop-color="#a21caf"/>
    </linearGradient>

    <linearGradient id="centerGradient" x1="0%" y1="0%" x2="100%" y2="100%">
      <stop offset="0%" stop-color="#8B5CF6"/>
      <stop offset="100%" stop-color="#6D28D9"/>
    </linearGradient>

    <linearGradient id="rightGradient" x1="0%" y1="0%" x2="100%" y2="100%">
      <stop offset="0%" stop-color="#a855f7"/>
      <stop offset="100%" stop-color="#7c3aed"/>
    </linearGradient>

    <style>
      .center-person {
        animation: lift-float 5s cubic-bezier(0.4, 0, 0.2, 1) infinite;
        transform-origin: 28px 32px;
      }
      @keyframes lift-float {
        0%, 100% { transform: translateY(0); }
        40%, 60% { transform: translateY(-2px); }
      }
    </style>
  </defs>

  <g transform="translate(2, 2)">
    <g fill="url(#leftGradient)">
      <circle cx="12" cy="10" r="7"/>
      <path d="M0 40 C0 28 6 24 12 24 C18 24 24 28 24 40 Q24 44 20 44 L4 44 Q0 44 0 40 Z"/>
    </g>

    <g fill="url(#rightGradient)">
      <circle cx="44" cy="10" r="7"/>
      <path d="M32 40 C32 28 38 24 44 24 C50 24 56 28 56 40 Q56 44 52 44 L36 44 Q32 44 32 40 Z"/>
    </g>

    <g class="center-person" fill="url(#centerGradient)">
      <circle cx="28" cy="6" r="9"/>
      <path d="M14 38 C14 24 20 20 28 20 C36 20 42 24 42 38 Q42 42 38 42 L18 42 Q14 42 14 38 Z"/>
    </g>
  </g>

  <text
    x="72"
    y="36"
    font-family="Inter, system-ui, -apple-system, BlinkMacSystemFont, sans-serif"
    font-size="38"
    font-weight="900"
    letter-spacing="-0.02em"
    fill="#FFFFFF"
  >LIFTOUT</text>
</svg>
